<?xml version="1.0" standalone="no"?>
<!DOCTYPE svg PUBLIC "-//W3C//DTD SVG 20010904//EN"
 "http://www.w3.org/TR/2001/REC-SVG-20010904/DTD/svg10.dtd">
<svg version="1.0" xmlns="http://www.w3.org/2000/svg"
 width="512.000000pt" height="512.000000pt" viewBox="0 0 512.000000 512.000000"
 preserveAspectRatio="xMidYMid meet">
<metadata>
Created by potrace 1.14, written by Peter Selinger 2001-2017
</metadata>
<g transform="translate(0.000000,512.000000) scale(0.100000,-0.100000)"
fill="#000000" stroke="none">
<path d="M2092 4843 c-37 -12 -68 -37 -85 -68 -7 -12 -12 -87 -12 -195 l-1
-174 -140 -1 c-135 -1 -181 6 -169 25 9 15 -21 75 -49 97 -15 12 -44 24 -66
28 -32 5 -40 11 -40 28 0 37 -43 101 -80 119 -30 16 -62 17 -247 15 -196 -2
-214 -4 -240 -23 -15 -11 -36 -36 -46 -55 -16 -32 -17 -93 -15 -960 l3 -927
-242 0 c-221 1 -245 -1 -279 -19 -54 -27 -77 -63 -82 -125 -3 -44 0 -59 20
-87 25 -38 70 -68 108 -74 18 -3 26 -12 31 -33 9 -44 26 -71 66 -101 l36 -28
863 0 863 0 -27 -28 c-31 -33 -92 -67 -142 -78 -19 -5 -150 -9 -290 -9 -286
-2 -349 -12 -462 -72 -76 -40 -185 -145 -225 -218 -131 -233 -93 -520 92 -701
37 -35 81 -80 98 -99 78 -84 134 -131 196 -163 120 -63 161 -71 404 -72 122
-1 221 -5 226 -11 4 -5 16 -29 25 -52 25 -65 77 -141 131 -192 26 -25 89 -86
139 -136 72 -72 107 -99 166 -127 41 -20 89 -38 105 -41 17 -3 41 -8 55 -11
34 -8 956 -8 1000 0 229 39 419 224 464 450 19 93 15 281 -8 360 -33 115 -90
196 -217 312 -5 4 -41 42 -81 83 -50 51 -95 87 -143 112 -131 68 -132 68 -695
65 -558 -3 -533 0 -670 -71 -79 -41 -187 -155 -228 -240 -34 -69 -61 -174 -62
-231 l0 -30 -287 0 c-159 1 -298 4 -310 8 -12 5 -30 10 -40 12 -43 9 -113 48
-131 73 -22 32 -49 98 -59 144 -12 57 -6 191 10 246 51 171 208 315 382 350
28 6 162 11 299 12 137 0 269 5 293 11 143 31 261 151 294 297 l11 47 1047 0
c1029 0 1047 0 1086 20 73 36 103 115 75 192 -15 40 -67 82 -110 89 -34 6 -38
10 -43 40 -3 19 -16 48 -28 65 -40 56 -68 61 -326 61 l-233 0 0 703 c0 423 -4
714 -10 729 -12 32 -53 59 -94 62 -17 1 -37 3 -43 3 -8 1 -13 16 -13 41 0 47
-22 85 -59 104 -20 10 -135 13 -536 12 -280 -1 -516 0 -522 2 -9 3 -13 30 -13
89 0 99 -16 143 -65 173 -18 11 -46 20 -64 20 -27 0 -31 4 -31 26 0 41 -29 92
-66 115 -31 19 -50 21 -231 22 -127 1 -209 -2 -231 -10z m420 -2587 c-11 -98
-112 -204 -226 -237 -16 -5 -147 -9 -292 -9 -231 -1 -273 -4 -336 -21 -212
-59 -379 -234 -422 -443 -14 -64 -14 -215 -1 -236 3 -5 4 -10 2 -10 -3 0 -14
15 -25 33 -87 149 -88 352 -1 503 68 119 207 219 339 242 30 6 163 11 295 12
132 0 256 3 275 6 83 12 182 77 255 165 17 21 28 25 80 24 60 0 60 0 57 -29z
m-672 -1251 l295 -1 5 -40 6 -40 -216 2 c-131 1 -226 6 -242 12 -16 6 -28 9
-28 7 0 -3 -31 11 -70 30 -38 19 -70 38 -70 41 0 3 6 2 13 -3 6 -4 145 -8 307
-8z"/>
</g>
</svg>
